<?xml version="1.0" encoding="iso-8859-1"?>
<!-- Generator: Adobe Illustrator 19.0.0, SVG Export Plug-In . SVG Version: 6.00 Build 0)  -->
<svg version="1.1" id="Capa_1" xmlns="http://www.w3.org/2000/svg" xmlns:xlink="http://www.w3.org/1999/xlink" x="0px" y="0px"
	 viewBox="0 0 432 432" style="enable-background:new 0 0 432 432;" xml:space="preserve">
<g>
	<g>
		<path d="M382.062,194.596C383.238,191.264,384,187.734,384,184v-32c0-17.674-14.324-32-32-32c-14.094,0-27.154,0-40,0v-16h8
			c17.674,0,32-14.326,32-32s-14.326-32-32-32h-32c-6.05,0-11.646,1.778-16.473,4.695C271.758,43.15,272,41.61,272,40
			c0-17.674-14.326-32-32-32h-32c-12.141,0-22.576,6.844-28,16.809C174.578,14.844,164.145,8,152,8h-32c-17.672,0-32,14.326-32,32
			s14.328,32,32,32v16c-12.953,0-26.008,0-40,0c-17.672,0-32,14.326-32,32v44.172C18.766,187.629,0,223.598,0,264
			c0,70.67,57.342,127.961,128,128c26.582,0,51.164-8.24,71.611-22.127C222.809,402.566,260.883,423.977,304,424
			c70.694,0,128-57.306,128-128C432,254.703,412.422,218,382.062,194.596z M288,56h31.102c7.97,0,15.377,5.428,16.674,13.295
			C337.426,79.306,329.711,88,320,88h-8v-8c0-4.418-3.582-8-8-8c-4.42,0-8,3.582-8,8v8h-7.098c-7.974,0-15.383-5.428-16.68-13.297
			C270.572,64.694,278.293,56,288,56z M208,24h32c8.824,0,16,7.178,16,16s-7.176,16-16,16h-32c-8.82,0-16-7.178-16-16
			S199.18,24,208,24z M180,55.191C185.424,65.156,195.859,72,208,72h32c6.05,0,11.649-1.778,16.474-4.695
			C256.246,68.85,256,70.39,256,72c0,17.674,14.328,32,32,32h8v16c-12.953,0-26.008,0-40,0c-17.672,0-32,14.326-32,32v27.446
			c-5.426-6.156-11.457-11.746-17.963-16.766c1.196-3.356,1.963-6.914,1.963-10.68v-32c0-17.674-14.324-32-32-32
			c-14.094,0-27.154,0-40,0V72h16C164.145,72,174.578,65.156,180,55.191z M179.443,325.054C165.526,336.824,147.615,344,128,344
			c-44.078-0.039-80-35.912-80-80s35.851-79.957,79.93-79.996h0.174c29.885,0.039,55.928,16.576,69.627,40.95
			C184.08,245.285,176,269.66,176,296C176,306.01,177.267,315.705,179.443,325.054z M180.221,183.574
			c6.379-0.85,12.117-3.535,16.734-7.566c8.711,6.854,16.35,14.95,22.709,24.05c-4.058,3.566-7.875,7.375-11.453,11.422
			C200.902,200.366,191.366,190.842,180.221,183.574z M104.222,37.297C105.519,29.428,112.928,24,120.902,24H151.1
			c7.973,0,15.379,5.428,16.676,13.295C169.426,47.306,161.711,56,152,56h-16v-8c0-4.418-3.582-8-8-8c-4.42,0-8,3.582-8,8v8
			C110.293,56,102.572,47.306,104.222,37.297z M128.01,376C66.248,375.966,16,325.722,16,264c0-34.09,15.314-65.926,42.014-87.348
			L64,171.848v-7.676V120c0-8.822,7.18-16,16-16h96c8.824,0,16,7.178,16,16v32c0,8.822-7.176,16-16,16l-48.084,0.004
			C75.027,168.05,32,211.115,32,264c0,52.886,43.061,95.953,96,96c4.412,0,8,3.588,8,8S132.412,376,128.01,376z M151.336,373.404
			C151.74,371.66,152,369.866,152,368c0-3.814-0.97-7.371-2.554-10.574c12.844-2.959,24.678-8.519,34.99-16.065
			c1.953,5.141,4.127,10.166,6.699,14.965C179.297,364.432,165.832,370.314,151.336,373.404z M304.01,408
			C242.248,407.966,192,357.722,192,296c0-34.09,15.314-65.926,42.014-87.348l5.986-4.804v-7.676V152c0-8.822,7.18-16,16-16h96
			c8.824,0,16,7.178,16,16v32c0,8.822-7.176,16-16,16l-48.084,0.004C251.027,200.05,208,243.115,208,296
			c0,52.886,43.061,95.953,96,96c4.412,0,8,3.588,8,8S308.412,408,304.01,408z M256,264c0-10.054-1.207-19.82-3.414-29.203
			c13.9-11.694,31.802-18.775,51.344-18.793h0.149C348.154,216.047,384,251.914,384,296c0,44.111-35.886,80-80,80
			c-29.898-0.027-56.004-16.565-69.73-40.946C247.924,314.718,256,290.336,256,264z M226.748,316.426
			C225.016,309.893,224,303.07,224,296c0-17.309,5.586-33.305,14.965-46.408C239.59,254.317,240,259.106,240,264
			C240,282.977,235.137,300.778,226.748,316.426z M327.34,405.394c0.402-1.74,0.66-3.533,0.66-5.394
			c0-3.805-0.965-7.351-2.539-10.549C368.082,379.674,400,341.547,400,296c0-33.691-17.5-63.297-43.84-80.42
			c6.446-0.846,12.246-3.561,16.89-7.65C399.17,228.453,416,260.285,416,296C416,349.74,377.912,394.621,327.34,405.394z"/>
	</g>
</g>
<g>
	<g>
		<circle cx="128" cy="136" r="16"/>
	</g>
</g>
<g>
	<g>
		<circle cx="304" cy="168" r="16"/>
	</g>
</g>
<g>
</g>
<g>
</g>
<g>
</g>
<g>
</g>
<g>
</g>
<g>
</g>
<g>
</g>
<g>
</g>
<g>
</g>
<g>
</g>
<g>
</g>
<g>
</g>
<g>
</g>
<g>
</g>
<g>
</g>
</svg>
